<svg xmlns="http://www.w3.org/2000/svg" viewBox="0 0 164.52 289.04"><defs><style>.a{fill:#040403;}.b{fill:#fe7001;}.c{fill:#060605;}.d{fill:#303e3f;}.e{fill:#9aa570;}.f{fill:#1e2a2b;}.g{fill:#839997;}.h{fill:#eaa73f;}.i{fill:#eba740;}.j{fill:#303d3e;}.k{fill:#d17d2c;}.l{fill:#1f2a2a;}.m{fill:#69807f;}.n{fill:#748346;}.o{fill:#68807f;}.p{fill:#768447;}.q{fill:#e9a63f;}.r{fill:#e7ca5c;}.s{fill:#cfa736;}.t{fill:#cca435;}.u{fill:#e4c85a;}.v{fill:#cc7a2a;}.w{fill:#010202;}.x{fill:#e3a03d;}.y{fill:#758549;}.z{fill:#fef040;}.aa{fill:#fefefe;}.ab{fill:#d2fcea;}.ac{fill:#ebf2cc;}</style></defs><path class="a" d="M66.89,172.64a8.39,8.39,0,0,1,0-9.68,1.16,1.16,0,0,0,0-1.48c-3.33-5.21-6.63-10.43-9.95-15.65a6.46,6.46,0,0,0-.88-1.13c-5.77-5.53-3.17-14.52,3.55-17.45a3.19,3.19,0,0,0,2-2.21c3.41-10.85,7.1-21.6,12.45-31.66A109.54,109.54,0,0,1,81.31,82c.9-1.3,2.5-2.13,3.85-3.24A44.78,44.78,0,0,1,166,41.63c11.35,18.66,7.86,43.61-10.94,58.79a11.24,11.24,0,0,0,3.11,1c1.81,0,2.77,1,3.61,2.32l.42.66,3.33-1.75c.4-.86,1-2.13,1.57-3.37a1.6,1.6,0,0,1,1.87-1,7.11,7.11,0,0,0,4.61-.82,8.71,8.71,0,0,1,1.59-.42c0-.79,0-1.58,0-2.37a2,2,0,0,1,1.52-2.27,9.94,9.94,0,0,1,6.24-.05,2.69,2.69,0,0,1,2,2.81v3.7a5.14,5.14,0,0,1,4.86,2.55c1.57,2.58-.12,4.34-1.5,6.18,2.41,3,2.43,3.16,0,6.19a1.29,1.29,0,0,0-.17,1.58c1.18,2.69.93,3.92-1.25,5.92a14.57,14.57,0,0,1-2.57,1.94,2.17,2.17,0,0,0-1.21,1.71c-.73,4.87-3.14,8.89-6.39,12.49a27.65,27.65,0,0,0-3.85,4.84c-1.66,3-4.33,3.78-7.35,4.11a1,1,0,0,1-.24,0c-2.47-.52-3.9.66-5.3,2.62-2.23,3.11-4.86,5.92-7.29,8.87a3.42,3.42,0,0,0-.58,1.27,17.41,17.41,0,0,1-3.42,6.73,2.07,2.07,0,0,0-.14,1.53,52.86,52.86,0,0,1,1.4,15.23c-.62,10.06-3.23,19.37-10.81,26.62a16.89,16.89,0,0,1-2.16,1.9,9.62,9.62,0,0,0-3.71,4.69,12.33,12.33,0,0,0-.79,4.42,41,41,0,0,1-3.66,16.23c-1.41,2.94-3.36,5.44-6.67,6.24a20.77,20.77,0,0,1-5.68.42,4.17,4.17,0,0,1-3.45-2.29c-2.3-4.08-3.27-8.3-1.77-13a15,15,0,0,0,.63-5.54,10.05,10.05,0,0,0-1.56-3.94,26.55,26.55,0,0,1-3.57-14c.08-2.47.84-4.83,3.35-6.22,1.41-.78,3.07-7,2.47-8.57,0-.06-.1-.11-.14-.15-.71,1.72-1.38,3.47-2.16,5.17a30.39,30.39,0,0,1-6.93,9.69A24.22,24.22,0,0,0,97.63,213H95.15l1-1.81-.19-.13-2.18,1.54-2-1.68c7.6-5.26,14.11-11.47,17.49-20.33a34,34,0,0,0,2.26-12.4l-2.42,1.54-.48-2.45c2.42-1.07,4-3.79,3.16-5.61.81-.27.76-.64.13-1.12a10.1,10.1,0,0,1-.68-.77,32.49,32.49,0,0,0-4.22-4.31c-5.86-4.24-12.63-5.9-19.74-6.16a30.1,30.1,0,0,0-12.13,2.1A11.4,11.4,0,0,0,68.61,167a3.76,3.76,0,0,1-.48.59l-.39-.17a5.77,5.77,0,0,1,.77-1.92,21.62,21.62,0,0,1,3.59-3.44c3.86-2.7,8.37-3.32,12.93-3.54a39.39,39.39,0,0,1,10.66,1c5.78,1.33,11,3.78,15.07,8.24.24.27.49.53.74.79l.31-.17-1.23-3.14c-.08-.18-.14-.37-.22-.55-1.35-3.18-2.65-6.38-4.08-9.52a20.58,20.58,0,0,0-2-2.9c-3.46-2.71-7.55-3.59-11.79-4-2,.07-4,0-5.92.25a14.8,14.8,0,0,0-6.78,2.34c-1.13.19-1.58,1.09-2.08,2-2,3.45-4.87,6.15-7.4,9.16a15.57,15.57,0,0,0-2.66,4.16,6.77,6.77,0,0,0,.64,5.58Zm38.36-22.5.09.06-.1-.06-.31-.09Zm14.88,49.61-1.46-.16-5.73.25a4.52,4.52,0,0,0-4.37,4c-.63,3.1.44,5.94,1.31,8.82.13-1.76.09-3.51.15-5.25a4.74,4.74,0,0,1,1.54-3.75,8,8,0,0,1,2.35-.88l4.77-1.73,4.29.14c2.09.5,4.2.95,5.52,2.91a23,23,0,0,1,3.66,9.69l.46-.1v-1.83c2.32-2.17,4.8-4.2,6.93-6.54a25.73,25.73,0,0,0,6-11.28.07.07,0,0,0,0-.11l.13-.37c.52-2.21,1.14-4.39,1.54-6.62a43,43,0,0,0,0-15c-.49-2.25-1-4.49-1.44-6.75-.06-.28-.11-.71,0-.86a1.46,1.46,0,0,1,.95-.27c.22,0,.44.23.7.38a11.51,11.51,0,0,0,2.36-5.38h-3.53c.2,1.1.42,2.17.56,3.25a2.61,2.61,0,0,1-.21,1.29.92.92,0,0,1-.83,0,3.17,3.17,0,0,1-.54-1.21c-.48-1.91-.9-3.8-2.48-5.25a8.1,8.1,0,0,1-2.41-3.19c-.84-2.84-2.72-4.73-4.91-6.45-.76-.59-1.57-1.13-2.47-1.79l-.21,1c-.94,3.63-1.84,7.26-2.81,10.88a4.73,4.73,0,0,1-3.34,3.31c-2,.65-3.92,1.35-5.92,1.9-2.72.75-5.48,1.38-8.32,2.08.25.53.45,1.05.72,1.52a9,9,0,0,1,.7,8.38,3.25,3.25,0,0,0-.09,1.29c0,1.08.12,2.16.11,3.23,0,1.47-.12,2.94-.19,4.4l-.13.06s0,0,.06,0l.06-.08a12.79,12.79,0,0,1,3.32-1.38,28.92,28.92,0,0,1,6.17,0,17.21,17.21,0,0,1,10.15,4.29c1,.88,1.76,1.94,2.63,2.91-.13-.91-.21-2.05-.83-2.57a21.84,21.84,0,0,0-9.65-5.19c-.74-.15-1.49-.21-2.24-.32V181l2.19-.17a19.23,19.23,0,0,1,7.93,3.61c1.51,1.16,3.11,2.27,3.85,4.16.47,1.22.22,1.92-.67,2.46-1.17.71-1.5-.2-2-.9a13.65,13.65,0,0,0-8-6,.17.17,0,0,0-.16-.06l-.55-.19-5.75-.95c-1.37.16-2.74.29-4.11.5a1.18,1.18,0,0,0-.75.62c-.5,1.16-.94,2.36-1.37,3.55a.8.8,0,0,0,0,.64,5.47,5.47,0,0,1,.79,3.78c-.68,2.3-1.35,4.59-2,6.66l6.7-.17c.77.15,1.55.25,2.3.47,1.63.47,3.25,1,4.88,1.5l-.15.49c-.56-.14-1.11-.31-1.67-.42-1.38-.29-2.77-.55-4.16-.82Zm16.53-54.18.08.13s0-.06,0-.07a.25.25,0,0,0-.09,0l-2.36-6.07a17.44,17.44,0,0,0-.83,3.49.9.9,0,0,0,.2.72C134.63,144.37,135.65,145,136.66,145.57Zm34.57-45c-2.52,0-2.91.35-3.32,2.69l2.29.52,2.66,1,6.7,3.65c.39.44.8.88,1.16,1.35,1.44,1.87,1.8,4.14,2.21,6.36.31,1.66.43,3.36.63,5l.29.2c.89-1,1.82-1.86,2.62-2.88a1.43,1.43,0,0,0,.08-1.29,4.08,4.08,0,0,1,.47-5.28c.95-1.08.76-1.66-.29-2.61s-1.21-1.58-.27-2.88c.62-.86,1.19-1.78,1.73-2.7s-.13-1.43-.67-1.81-1.45-.84-2-.65a15.72,15.72,0,0,0-2.9,1.84c-1,.17-2.08.36-3.13.5-2,.25-3.93.46-5.9.69-.63-1.1-.5-1.91.61-2.9a1.42,1.42,0,0,0,.33-2.14ZM119.41,240.86c1.84-.23,2.76-1.45,3.29-3.2l-2.18.44-6.27.37C115.43,241.32,116.79,241.94,119.41,240.86ZM80.79,147.5a5.53,5.53,0,0,0,.81-.16,29.66,29.66,0,0,1,16-.51,55.2,55.2,0,0,1,6.12,2.09,2.91,2.91,0,0,0-.89-.7,27.64,27.64,0,0,0-17.1-2.83,7.63,7.63,0,0,0-4.93,2.11l-.05.1ZM148.14,95l2,1.27.34-.42L148,93.47l-6.46-4.29-6.79-2.62a16.9,16.9,0,0,0,1,3.91,1,1,0,0,0,.68.5c1.2.26,2.41.46,3.62.68ZM58,137.42c.73-2.66,1.46-5.33,2.22-8.08-2.52.69-4.79,4-4.88,6.89-.64,2.27.27,4.1,1.58,6Zm120.57-35.54a16.68,16.68,0,0,0,2.35-.19c1.63-.36,2-.9,2-2.52v-3.7c.17-1-.29-1.5-1.3-1.47-1.26,0-2.51.08-3.76.14-.75,0-.94.45-.94,1.18,0,2.16-.08,4.33-.13,6.56Zm-57,135.29,1.66-.15c.49-1.26,1-2.6,1.6-4.1l-1.82.48-10.2.88c0,.23.08.54.16.85.61,2.55.62,2.55,3.2,2.55.72,0,1.44.06,2.15,0C119.38,237.55,120.45,237.34,121.54,237.17Zm3.11-8.32c-3.18.32-6.36.73-9.55.94-3,.19-3.42.69-2.27,4.07l10.63-1.25c1.62-.32,2.37-1.55,2.46-4.08Zm.66-4.66c-2.31.38-4.6.84-6.91,1.12a38.63,38.63,0,0,1-4.31,0l-.9,3.41a28.82,28.82,0,0,0,11.7-.7c.48-.18,1.28-.26,1.39-.57a31.25,31.25,0,0,0,.85-3.74ZM124.65,207c-1.67.07-3.35,0-5,.24a61.8,61.8,0,0,0-6.17,1.24,1.62,1.62,0,0,0-1,1,16.87,16.87,0,0,0,.15,9.08c2-.14,4-.3,6.07-.4,2.62-.12,5.23-.26,7.85-.24.81,0,1-.32,1-.92a23.89,23.89,0,0,0-1.52-9.2C125.73,207.1,125.35,206.85,124.65,207Zm55.91-91.65-.22-1.08c-.4-1.59-.44-3.41-2-4.43a27.12,27.12,0,0,0-12.88-4.93,1.33,1.33,0,0,0-.86.22c-.61.47-1.15,1-1.74,1.56a11.08,11.08,0,0,0,5.09,4.73,12.31,12.31,0,0,1,1.81,1.27,9.76,9.76,0,0,0,.78,1.19c1.09,1.22,2.31,2.33,3.31,3.61a15.43,15.43,0,0,1,2.88,6.38c-1.58-3-2.84-6.18-5.62-8.58a3.73,3.73,0,0,0,.15.73,20.41,20.41,0,0,1,1.76,3.81c.73,3.07,1.16,6.21,1.77,9.32.8,4.18-1.13,7.36-3.68,10.33-.09.1-.36,0-.69.07l.2-1.68c.33-2.4.78-4.79,1-7.2a40.06,40.06,0,0,0-2.17-16c-.39-1.15-.75-2.12-2.14-2.32a2.77,2.77,0,0,1-1.12-.66,27.88,27.88,0,0,1-5.84-6.42c-.43-.6-.91-1.5-1.48-1.6a12.66,12.66,0,0,1-6.41-3.21l-2.37-1.94c-3-1.86-5.71-4.29-9.61-3.8l.36-.94-4.48-.95v4.42l1.09-.45.4.25c-1.52,1-1.18,2.29-1.14,3.6.1,4.26.17,8.53.24,12.79,0,1.38,0,2.75,0,4.23h1.85a8,8,0,0,1,6.88,3.45,13.47,13.47,0,0,1,1.9,3.57c1.24,3.6,2.33,7.27,3.5,10.9a3.4,3.4,0,0,0,.69,1.35c1.11,1.14,2.28,2.23,3.46,3.3a13.67,13.67,0,0,0,10.52,4c2.09-.15,4-.59,5.1-2.85a21.12,21.12,0,0,1,2.56-3.73c1.33-1.74,2.89-3.32,4.07-5.15a21.69,21.69,0,0,0,3.17-16.93ZM103.05,68.79C101,70,98.84,71.2,96.76,72.43c-.57.34-1.13,1.09-1.74.43a1.89,1.89,0,0,1,0-1.69q1.86-3.54,3.94-7c1.12-1.82,2.39-3.56,3.74-5.55a32.24,32.24,0,0,1-11.4.24L89,57.67l3.28-1.56a6.67,6.67,0,0,0,1.1-.45C99.16,52,105,48.37,110.67,44.51c5-3.44,10.15-6.64,16-8.42a11.56,11.56,0,0,1,2.69-.38c2.36-.13,4.26,1.12,5.93,2.48,4.16,3.38,9,2.83,13.82,2.89a10.72,10.72,0,0,1,3,.58c4.79,2.47,7.86,6.78,11.1,10.86.7.87.42,1.72-.52,2.35-.52.36-1.08.67-1.62,1a2,2,0,0,0-1.4,2.27c.18,2.87-.29,5.66-2.42,7.76A24.05,24.05,0,0,1,152.94,69,1.56,1.56,0,0,0,152,70.6c0,2.75.15,5.51,0,8.24-.33,4.27-1.36,8.29-5.51,10.81a23.64,23.64,0,0,1,7.44,7.49c.13.74.5.57.9.23a40,40,0,0,0,3.28-2.8c10-10.44,13.79-22.88,11.41-37.09-3.9-23.28-26.87-38.86-50-34.06a42.4,42.4,0,0,0-33.36,49c.34,1.94.92,3.83,1.4,5.81l2.17-.65c3.2-.57,6.41-1.12,9.61-1.72a1.53,1.53,0,0,0,1-.63c1-2.07,1.92-4.18,2.87-6.28v-.26ZM139,85.94c1.56.7,3.1,1.44,4.69,2.06a2.1,2.1,0,0,0,1.52-.06,8.05,8.05,0,0,0,3.88-4.82,30.19,30.19,0,0,0,1.05-13.58c-.08-.71-.13-1.23.69-1.67A26.14,26.14,0,0,0,155.33,65c2.25-1.89,2.66-4.55,2.57-7.5-1.21.62-2.23,1.22-3.31,1.69-.71.31-.79.78-.91,1.47a16.64,16.64,0,0,1-1.17,3.93c-.46,1-1.15.89-1.73-.07a18.52,18.52,0,0,0-1.53-2.28,2.3,2.3,0,0,0-1.36-.81,10.86,10.86,0,0,0-6.69,1.18c-1.94,1.09-3.84,2.25-5.75,3.39-2.59,1.55-5.26,2.85-8.41,2.62-2.14-1.14-2.76-2.49-2-4.29s2.79-3.19,4-2.75c-.6.68-1.22,1.28-1.74,2a2.29,2.29,0,0,0-.4,2.77,2,2,0,0,0,2.56.66,51.63,51.63,0,0,0,6.13-2.59,51.28,51.28,0,0,1,10.21-4.27c2.12-.59,3.17-.17,4.31,1.69.4.66.75,1.35,1.12,2h.33a29,29,0,0,0,.68-3.44,2.44,2.44,0,0,1,1.37-2.14c2.64-1.52,5.22-3.16,8.11-4.93-2.61-2.85-5-5.54-7.53-8.17a6.08,6.08,0,0,0-5.61-2,13.5,13.5,0,0,1-1.8,0c-4.88.05-9.59-.46-13.42-4a1.73,1.73,0,0,0-.41-.25,7.48,7.48,0,0,0-6.52-.7,49.87,49.87,0,0,0-11.54,6c-6.53,4.58-13,9.27-20.13,12.92,0,0,0,.13,0,.29a8.87,8.87,0,0,0,1,0c2.46-.26,4.91-.6,7.38-.77a2.81,2.81,0,0,1,1.84.73c.19.16-.11,1.1-.4,1.54-1.74,2.63-3.54,5.21-5.3,7.83-.4.6-.69,1.27-1,1.93l6-2.37c1.73.23,2,.74,1.28,2.26-.37.75-.75,1.5-1.1,2.26-.66,1.48-1.3,3-2,4.67l5-.29,2.63,0A54,54,0,0,1,126.39,78c2.19.75,4.25,1.66,5.45,3.81.91,1.37,1.27,3.36,3.57,3.15Zm3.42,34.71c-.63-.32-1.24-.88-1.88-.91-2.56-.13-5.13-.13-7.69-.12-1.89,0-3.78.06-5.67.14a3.72,3.72,0,0,0-1,.42,20.69,20.69,0,0,0-1.69,1.82c-1.71,2.31-1.75,7.63.73,9.88,1.83,1.67,3.87,1.46,6,1.44-.38-.89-1.92.22-1.92-1.2.41-.05.75-.11,1.09-.12,1.09,0,2.17,0,2.81,1.12.73,1.33,1.59,2.6,2.2,4,2.06,4.71,4,9.46,6.06,14.18a15.44,15.44,0,0,0,1.83,3.6,5.84,5.84,0,0,0,9.17,0,7.28,7.28,0,0,0,1.7-7.1c-.72-2.6-1.7-5.13-2.58-7.69a2.39,2.39,0,0,0-.43-.67,7.1,7.1,0,0,1-1.22-1.62c-.6-1.64-1-3.34-1.55-5-.75-2.35-1.47-4.71-2.3-7C145.32,123.73,144.5,121.72,142.4,120.65Zm-27.63,15.84-.4.21-.51-1.2c.47-2.09,1-4.17,1.41-6.27,2.58-12.36,5.06-24.73,7.75-37.06.86-3.91.74-8.16,3.54-11.58-.41-.16-.73-.31-1.06-.42a43.45,43.45,0,0,0-13-2.18c-4.21-.07-8.45.14-12.65.46a56.83,56.83,0,0,0-14,2.9,5,5,0,0,0-2.09,1.08c-1.58,1.84-3.08,3.76-4.48,5.75a70.53,70.53,0,0,0-7.43,14.71A297.92,297.92,0,0,0,59.41,141.8a5,5,0,0,0,.06,1.38,43.44,43.44,0,0,0,5.09,10.51c1.4,2.21,2.89,4.36,4.37,6.57.25-.15.41-.2.5-.32,1.75-2.06,3.51-4.12,5.23-6.21C76.08,152,77,149.8,79,148.59c.18-.1.21-.42.36-.58a11.57,11.57,0,0,1,2-2.1,13.12,13.12,0,0,1,7.58-1.7,56.63,56.63,0,0,1,9.53,1.23,14.28,14.28,0,0,1,7.34,3.79c.45.46,1,1.16,1,1.67a2.41,2.41,0,0,0,.78,2,2.84,2.84,0,0,1,.48.8c1,2.75,2,5.53,3.06,8.26a1.25,1.25,0,0,0,1,.6,74.24,74.24,0,0,0,14.14-3.82,2.46,2.46,0,0,0,1.29-1.38c.81-2.79,1.58-5.59,2.19-8.43.94-4.38,1.73-8.79,2.62-13.33a19.73,19.73,0,0,0-2.26-.29,26.16,26.16,0,0,1-3.19,0c-2.17-.32-3.55-1.83-4.69-3.58-.29-.45-.62-.87-.94-1.31a15.42,15.42,0,0,0-.11-1.66,10.79,10.79,0,0,1,2.22-8.61,4.83,4.83,0,0,1,4.8-2.19,19.58,19.58,0,0,0,4.1-.18,4.72,4.72,0,0,1,.84,0c1.21.18,1.61-.34,1.56-1.54s.21-2.46.18-3.68q-.18-7.76-.48-15.5c-.05-1.26-.3-2.51-.46-3.76A26.89,26.89,0,0,0,130.62,84a12.73,12.73,0,0,0-1.82-2.49c-.58-.62-1.41-.78-1.92.1a11.7,11.7,0,0,0-1.46,3.18c-1.41,6.52-2.71,13.06-4,19.59q-2.19,10.74-4.39,21.47C116.26,129.42,115.51,133,114.77,136.49ZM125.36,204l-.23.25c.1.2.21.39.29.59a38.29,38.29,0,0,1,2.31,5.57,34.14,34.14,0,0,1,.21,14.58,38.39,38.39,0,0,1-5.44,14.62,2.92,2.92,0,0,0-.26.91l.32.21a13.41,13.41,0,0,0,2.57-2.4,32.34,32.34,0,0,0,3.08-6,43,43,0,0,0,2.13-17.58,17.58,17.58,0,0,0-3.9-9.86A6.09,6.09,0,0,0,125.36,204Zm1.84,18.94c.09-.63.17-1.26.26-1.88.16-1.13-.06-1.36-1.2-1.28l-6.68.49c-1.88.15-3.77.34-5.67.5l.38,3.44A33.38,33.38,0,0,0,127.2,222.89ZM125,206c-.62-1.78-1.78-2.89-3.81-2.58-1.87.28-3.73.68-5.59,1.09-1.48.33-1.92,1.63-2.6,2.85Zm29.84-54.41.29,0,4.71-6a16.45,16.45,0,0,1-7.24-5.5C153.49,144,155.7,147.51,154.85,151.63ZM172,136.21c.27-.15.37-.16.4-.22.15-.23.28-.48.43-.71,1.73-2.78,1.42-5.75.85-8.75-.25-1.32-.46-2.64-.69-4l-.31,0A49.54,49.54,0,0,1,172,136.21Zm-54.18,83.08,9.64-.37v-.38A34,34,0,0,0,117.85,219.29Zm-13.4-69.85c0-.06-.07-.15-.11-.17s-.13,0-.19.06l.15.23ZM111.8,169l0,.08h.13s0-.06,0-.08S111.83,169,111.8,169Z" transform="translate(-25.87 -20.16)"/><path class="b" d="M66.89,172.64l1.43-.94c1.52-.69,3.05-1.36,4.56-2.06a2.39,2.39,0,0,0,.79-.53c4.17-4.54,9.45-6.32,15.48-6.09,3.55.13,7,.48,10,2.78,4,3.1,7.59,6.56,9.4,11.47l.48,2.45a26.19,26.19,0,0,1-.5,9.38c-.66,2.86-1.57,5.64-3.84,7.69a14.35,14.35,0,0,1-2.38,1.47l-.24-.31c.2-.68.43-1.35.59-2,.62-2.62-1.62-5.22-4.19-4.67a5.48,5.48,0,0,0-3,1.78,25.57,25.57,0,0,0-5.12,14.32,4.31,4.31,0,0,0,1.34,3.57l2,1.68,1.4.4h2.48l2.21-.75c-.57,2.51-1.1,4.94-1.67,7.36a59.76,59.76,0,0,1-14.61,27.17,27.59,27.59,0,0,0-7,13.91c-.42,2.29-.12,4.08,1.29,5.54L81,262.11l0,0a5.41,5.41,0,0,1-1,4.15A47.25,47.25,0,0,0,71.45,287c-.65,3.68-.93,7.42-1.42,11.42-.16-1.61-.29-3-.43-4.32-.46-4.32-1-8.64-1.36-13a4.73,4.73,0,0,1,.41-2.38c1.56-3.3,2.46-6.67,1.35-10.3a8.11,8.11,0,0,0-1.26-2.67,2.24,2.24,0,0,1-.28-2.49c2.1-6,4.22-12,6.16-18.09A59.19,59.19,0,0,0,76,238.38l.26-2.39.17-2.4v-.47l-.22-4.32,0-.46c-.24-1.3-.43-2.61-.76-3.89-.1-.38-.57-.66-.88-1l-1.65-3c-.81-2-1.61-4-2.45-5.94a2.47,2.47,0,0,1,.17-2.24c.69-1.46,1.17-3,1.74-4.52a16.31,16.31,0,0,0-1-9.34,4,4,0,0,0-2.47-2.72c-1.38-.57-2.73-.81-4,.24l-1.66,2.2-.44,1.16-.35.56-.61-1.44-.17-2.09.14-1.85c.26-.91.59-1.81.77-2.74a2.89,2.89,0,0,0-.16-1.35c-1.55-5.51-1.4-10.78,2.28-15.51A25,25,0,0,1,66.89,172.64Zm15.55,27.58c.9-2.25,1.68-4.54,2.72-6.71,1.12-2.33,2.61-4.47,5-5.57a7.55,7.55,0,0,0,3.19-2.77,15.9,15.9,0,0,0,2.47-7.77,11.82,11.82,0,0,0-2.24-8.25c-3.06-4.15-9.21-3.37-12.51-.49s-4.7,6.79-5.75,10.83a9,9,0,0,0,.27,3l.43.1c.17-2.89,1.4-4.75,4.45-4.6a3.77,3.77,0,0,1,3.3,3.18c.42,1.82-.51,3.28-3.07,4.76C83.54,190.42,82.63,195.38,82.44,200.22Z" transform="translate(-25.87 -20.16)"/><path class="c" d="M61.86,198.38l.61,1.44.35-.56,2.63,2.45,0,.91c-1.15,1.31-2.32,2.61-3.46,3.95-1.54,1.81-3.05,3.65-4.57,5.48a13.14,13.14,0,0,1-1.61.68c-3.32.91-6.65,1.78-10,2.67l-2.86,1.13c2.28.53,4.21.93,6.11,1.45a5.91,5.91,0,0,1,1.51,1l-.91,2a28.61,28.61,0,0,0-6.52,10h0l-.27.23a37.72,37.72,0,0,0-9.34,7.43l-2.4,2.88c0,.06-.05.12-.07.19l.13-.14a16.34,16.34,0,0,0,1.63-.66,21.12,21.12,0,0,1,7.23-2.48c-.23.67-.51,1.33-.69,2-1,3.69-2,7.4-3,11.08a8.22,8.22,0,0,1-1,2.3c-1.53,2.32-3.14,4.59-4.72,6.89h0l-.22.26-.8,1.6a1.89,1.89,0,0,1,0,.23l.14-.14,5.52-2.9c0,2.15-.09,4.3.11,6.43a13.86,13.86,0,0,1-.68,6.06,28.24,28.24,0,0,0-.87,4.54l-.51,4A29.58,29.58,0,0,0,34.88,278a25.73,25.73,0,0,1,1.81-2.38,11.37,11.37,0,0,0,.17,1.17,78,78,0,0,0,11.32,25.53c.15.22.33.43.6.78-1.62-4.66-3.16-9.11-4.7-13.56a7.68,7.68,0,0,0-.11-.82A70.15,70.15,0,0,1,42,263.78a49.49,49.49,0,0,1,6.42-20.13,58.74,58.74,0,0,1,24.47-23.23l1.65,3-4.46,1.07c.39,1.57.7,3,1.12,4.39a1.08,1.08,0,0,0,.92.53c1.37-.31,2.71-.73,4.06-1.11l0,.46-4.59,1.5c.47.88.86,1.57,1.21,2.29s.86,1.25,1.86.82a7,7,0,0,1,1.74-.29c0,.16,0,.32,0,.47L74,234.4,76.27,236,76,238.38a9.79,9.79,0,0,1-4.53-4.28,20.8,20.8,0,0,1-2.75-7.6c0-.38-.14-.76-.28-1.52-2.89,2.45-5.68,4.64-8.29,7-9.9,9.05-15,20.49-16.18,33.71a69.64,69.64,0,0,0,4.81,31.56c1.24,3.23,2.73,6.37,4.21,9.5a1.71,1.71,0,0,1-.28,2.16c-.75.68-1.38-.11-1.8-.6a71.52,71.52,0,0,1-5.6-6.85,77,77,0,0,1-9.34-20c-.07-.22-.15-.44-.34-1-1,2.62-2,5-3,7.34l-.44-.09c-.13-.8-.24-1.59-.38-2.39-.85-4.88,0-9.63,1.28-14.3a16.53,16.53,0,0,0,.09-4.49c0-1.19-.16-2.37-.26-3.72-2.76,1.38-4.69,3.6-7.1,5.44,0-.43.05-.87.13-1.3,1-5.26,3.94-9.51,7.22-13.57a5.61,5.61,0,0,0,1-2c.84-3.28,1.62-6.58,2.42-9.87v-.29l-.25.11c-3.53,1.31-6.71,3.42-10.31,4.62a14.75,14.75,0,0,1,3.33-6,45.15,45.15,0,0,1,11.11-9.74,3.43,3.43,0,0,0,1-1c1.95-3,3.87-6.12,5.79-9.19l.5-.82c-3.37-.45-6.56-.87-9.74-1.33a5.11,5.11,0,0,1-1.17-.49c.27-.29.48-.67.81-.84a55.36,55.36,0,0,1,14.71-5.16,7.59,7.59,0,0,0,4.9-3c1.32-1.75,2.88-3.31,4.3-5,1.05-1.22,1-2.24-.3-3.12-1.63-1.11-3.37-2.09-5.07-3.11-.33-.2-.69-.34-1.24-.6,2.13-1.64,4.49-2,6.82-2.36,0,.62-.1,1.23-.14,1.85l-2.42.47Z" transform="translate(-25.87 -20.16)"/><path class="b" d="M81,262.11l.13,0s0,0,0,0-.07,0-.1,0Z" transform="translate(-25.87 -20.16)"/><path class="d" d="M59.47,143.18a5,5,0,0,1-.06-1.38,297.92,297.92,0,0,1,12.43-38.91,70.53,70.53,0,0,1,7.43-14.71c1.4-2,2.9-3.91,4.48-5.75a5,5,0,0,1,2.09-1.08,56.83,56.83,0,0,1,14-2.9c4.2-.32,8.44-.53,12.65-.46a43.45,43.45,0,0,1,13,2.18c.33.11.65.26,1.06.42-2.8,3.42-2.68,7.67-3.54,11.58-2.69,12.33-5.17,24.7-7.75,37.06-.43,2.1-.94,4.18-1.41,6.27h-1.19c-.27-.31-.5-.85-.81-.9a31,31,0,0,0-4.49-.52c-3.53-.07-7.07-.21-10.59,0-5,.31-10,.73-15,1.44a82.28,82.28,0,0,0-20.42,5.87c-.73.3-1.13.71-.91,1.53Z" transform="translate(-25.87 -20.16)"/><path class="e" d="M131.84,81.8c-1.2-2.15-3.26-3.06-5.45-3.81A54,54,0,0,0,110,75.33l-2.63,0c-.17-2.5-.27-5-.53-7.49a38.58,38.58,0,0,1,.83-13.38,2.06,2.06,0,0,1,.83-1.17c1.11-.69,1.24-1,.54-2.17,1.19.19,1.52-.94,2.23-1.49.11-.08,0-.68-.14-.79s-.89-.34-1-.2c-.63.69-1.78,1.22-1.07,2.49-1.5,0-1.94.37-1.92,1.32a6.81,6.81,0,0,1-.31,2.38,44.8,44.8,0,0,0-2.58,11.6l-6,2.37c.36-.66.65-1.33,1-1.93,1.76-2.62,3.56-5.2,5.3-7.83.29-.44.59-1.38.4-1.54a2.81,2.81,0,0,0-1.84-.73c-2.47.17-4.92.51-7.38.77a8.87,8.87,0,0,1-1,0c0-.16,0-.27,0-.29,7.13-3.65,13.6-8.34,20.13-12.92a49.87,49.87,0,0,1,11.54-6,7.48,7.48,0,0,1,6.52.7,1.73,1.73,0,0,1,.41.25c3.83,3.51,8.54,4,13.42,4a13.5,13.5,0,0,0,1.8,0,6.08,6.08,0,0,1,5.61,2c2.5,2.63,4.92,5.32,7.53,8.17-2.89,1.77-5.47,3.41-8.11,4.93a2.44,2.44,0,0,0-1.37,2.14,29,29,0,0,1-.68,3.44h-.33c-.37-.67-.72-1.36-1.12-2-1.14-1.86-2.19-2.28-4.31-1.69a51.28,51.28,0,0,0-10.21,4.27A51.63,51.63,0,0,1,129.48,67a2,2,0,0,1-2.56-.66,2.29,2.29,0,0,1,.4-2.77c.52-.68,1.14-1.28,1.74-2-1.2-.44-3.24,1-4,2.75s-.17,3.15,2,4.29c1.25,1.62,4.14,2.21,5.57,1.23,1.83-1.26,3.71-2.46,5.6-3.63a1.31,1.31,0,0,1,1.16-.09c.23.18.27.78.19,1.16-.2,1-.48,2-.77,3a72.94,72.94,0,0,1-2.16,7.16A7.77,7.77,0,0,1,131.84,81.8Zm0-40.31c-.31,0-.63-.05-.93-.11-1-.19-1.91-.45-2.87-.57-.29,0-.63.29-1,.45.2.24.39.49.6.73a2.64,2.64,0,0,0,.36.28,5.52,5.52,0,0,0,1.05.65,4.9,4.9,0,0,1,3.45,2.89h0c-2.3-.53-4.58-1.13-6.9-1.55-2.08-.38-4.19-.56-6.29-.83a2.48,2.48,0,0,0-2.83,1.89,19.94,19.94,0,0,0-1.17,5.89c.09,4,2.32,6.64,6.75,6.34,1.32-.09,2.7-.28,3.49-1.61,3.38-1.4,5.48-4.2,7.62-7,.63-1,1.2-2,1.91-3,.84-1.13,1-2.25.25-3.16a7.87,7.87,0,0,0-4.85-2.33l1.28,1ZM120.35,67.16c0,1.69.45,2.68,1.6,3.15a1.87,1.87,0,0,0,1.41-.19c.23-.12.35-.71.29-1-.27-1.31-.6-2.61-1-3.88-.1-.34-.44-.79-.71-.82s-.74.33-.87.63A22.57,22.57,0,0,0,120.35,67.16Zm27.78-21.93c-.34.33-.95.72-.9.91.16.49.56,1.22.94,1.27a8.66,8.66,0,0,0,2.56-.27.91.91,0,0,0,.08-.61C150,46.09,149.13,45.7,148.13,45.23Z" transform="translate(-25.87 -20.16)"/><path class="f" d="M59.47,143.18l1-.24A12.72,12.72,0,0,1,62,142a76.89,76.89,0,0,1,18.91-5.55,135.22,135.22,0,0,1,14.74-1.59,82.76,82.76,0,0,1,17,.66h1.19l.51,1.2a12.24,12.24,0,0,0,.66,2c1.45,2.85,3,5.63,4.42,8.49,1.71,3.47,3.28,7,4.94,10.5a7.68,7.68,0,0,0,.84,1.15l.38-.22a3.52,3.52,0,0,0-.16-.88q-2.58-5.26-5.2-10.51c-1.48-3-3-5.91-4.46-8.86.2.16.47.29.59.5,1.45,2.52,2.86,5.06,4.3,7.59.75,1.32,1.55,2.63,2.26,3.83-.53-6.61-1.06-13.25-1.59-19.88.32.44.65.86.94,1.31,1.14,1.75,2.52,3.26,4.69,3.58a26.16,26.16,0,0,0,3.19,0,19.73,19.73,0,0,1,2.26.29c-.89,4.54-1.68,8.95-2.62,13.33-.61,2.84-1.38,5.64-2.19,8.43a2.46,2.46,0,0,1-1.29,1.38,74.24,74.24,0,0,1-14.14,3.82,1.25,1.25,0,0,1-1-.6c-1.06-2.73-2-5.51-3.06-8.26a2.84,2.84,0,0,0-.48-.8,2.41,2.41,0,0,1-.78-2c.06-.51-.53-1.21-1-1.67a14.28,14.28,0,0,0-7.34-3.79A56.63,56.63,0,0,0,89,144.21a13.12,13.12,0,0,0-7.58,1.7,11.57,11.57,0,0,0-2,2.1c-.15.16-.18.48-.36.58-2,1.21-2.94,3.41-4.36,5.14-1.72,2.09-3.48,4.15-5.23,6.21-.09.12-.25.17-.5.32-1.48-2.21-3-4.36-4.37-6.57A43.44,43.44,0,0,1,59.47,143.18Z" transform="translate(-25.87 -20.16)"/><path class="g" d="M92.29,56.11,89,57.67l2.29,1.24a15,15,0,0,0-1,2.59,74.82,74.82,0,0,0-1.32,9,46,46,0,0,0,.7,7.07l-2.17.65c-.48-2-1.06-3.87-1.4-5.81a42.4,42.4,0,0,1,33.36-49c23.1-4.8,46.07,10.78,50,34.06,2.38,14.21-1.41,26.65-11.41,37.09a40,40,0,0,1-3.28,2.8c-.4.34-.77.51-.9-.23,1.09-1.2,2.26-2.33,3.22-3.62a33.5,33.5,0,0,0,2.11-3.64.69.69,0,0,0,.2-.13,39.72,39.72,0,0,0,9.32-27.87A5.44,5.44,0,0,0,167.41,58c-.37,2.37-.61,4.53-1.07,6.65s-1.15,4.35-1.75,6.53a49.85,49.85,0,0,0-.78-6.13c-.75-3.08-1.79-6.09-2.72-9.13.54-.33,1.1-.64,1.62-1,.94-.63,1.22-1.48.52-2.35-3.24-4.08-6.31-8.39-11.1-10.86a10.72,10.72,0,0,0-3-.58,2,2,0,0,0-.47-.52,76.34,76.34,0,0,0-7-4,34.88,34.88,0,0,0-21.06-2.69c-11.09,2.16-20,7.71-26,17.5A46.19,46.19,0,0,0,92.29,56.11ZM94.44,47a5.06,5.06,0,0,0,3.08-1.68c1.39-1.75,2.7-3.57,4.24-5.18a49.09,49.09,0,0,1,19-12.25c.75-.27,1.34-.58,1.09-1.51-.4-1.51-1.14-2.14-2.17-1.95a41.87,41.87,0,0,0-27,18.9c-.33.55-.68,1.53-.43,1.89A9.17,9.17,0,0,0,94.44,47Zm29-23.23c-.18.19-.84.54-.91,1a2.25,2.25,0,0,0,1.89,2.34,1.19,1.19,0,0,0,1.32-1.23C125.83,24.61,125.07,23.8,123.45,23.78Z" transform="translate(-25.87 -20.16)"/><path class="h" d="M145.59,193.92a.07.07,0,0,1,0,.11c-1.07,1.26-2.05,2.61-3.23,3.76-2,2-4.91,3.15-7.9,1.27a8,8,0,0,0-2.43-.94c-3-.69-6.06-1.13-9.12-.16l-4.15-.41,0,.46,1.42.15-.72.45-6.7.17c.61-2.07,1.28-4.36,2-6.66.29-.38.55-.77.87-1.12a31.23,31.23,0,0,1,3.65-3.71c2.12-1.6,4.54-1.24,6.92-.45a23.56,23.56,0,0,0,2.52.56l.21-.46a6.11,6.11,0,0,0-1-1A12.67,12.67,0,0,0,121.4,184c-.65,0-1.35.07-1.29-.93l5.75.95.55.19a.17.17,0,0,1,.16.06,2.14,2.14,0,0,0,.44.64c1.33.94,2.68,1.82,4,2.76s2.34,1.7,3.51,2.55c.48.7.81,1.61,2,.9.89-.54,1.14-1.24.67-2.46-.74-1.89-2.34-3-3.85-4.16a19.23,19.23,0,0,0-7.93-3.61l-.94-.64,1.66-.28,6.46,1.67.46.21h0c1.44,1.09,2.83,2.26,4.34,3.24.38.25,1.13-.07,1.7-.12a4.45,4.45,0,0,0-.22-1.54c-.74-1.3-1.58-2.55-2.42-3.79a1.28,1.28,0,0,0-.8-.44c-.94-.14-1.9-.16-2.84-.3a33.68,33.68,0,0,0-10.07-.45c-1,.14-1.93.15-3,.22a11.9,11.9,0,0,1,5.6-2.62c.35-.08.61-.5.91-.75a4.14,4.14,0,0,0-1.14-.59,4.81,4.81,0,0,0-1.34.16,13.83,13.83,0,0,1,2.87-.85c2.31-.46,4.62-.93,6.91.18a1.32,1.32,0,0,0,1.09-.58,1.54,1.54,0,0,0-.54-1.31,9.54,9.54,0,0,0-2.24-.53,17.86,17.86,0,0,1,.47-8.26c.87-2.62,1.79-5.22,2.73-8a16.29,16.29,0,0,1,1.39,1c4.29,3.94,7.8,8.39,9.63,14,.17.52.74.92,1.13,1.38a43,43,0,0,1,0,15c-.4,2.23-1,4.41-1.54,6.62Z" transform="translate(-25.87 -20.16)"/><path class="i" d="M152.46,100.5a12.66,12.66,0,0,0,6.41,3.21c.57.1,1,1,1.48,1.6a27.88,27.88,0,0,0,5.84,6.42,2.77,2.77,0,0,0,1.12.66c1.39.2,1.75,1.17,2.14,2.32a40.06,40.06,0,0,1,2.17,16c-.19,2.41-.64,4.8-1,7.2-.07-1-.14-2-.2-3.07a1.76,1.76,0,0,0-2.52-1.75,23.44,23.44,0,0,0-2.5,1.37,2.13,2.13,0,0,0-1.22,2.25c.19,2.19-1,2.41-2.68,1.52a33.54,33.54,0,0,1-4.16-2.58c-1-.76-2.27-1.37-2.5-2.89a23,23,0,0,0-.74-3.49c-1.09-3.49-2.12-7-3.45-10.4a5.78,5.78,0,0,0-3.92-3.91,4.08,4.08,0,0,1-3.36-4.54,22.92,22.92,0,0,1,3.42-8.86,3.56,3.56,0,0,1,4.13-1.35C151.44,100.33,152,100.4,152.46,100.5Z" transform="translate(-25.87 -20.16)"/><path class="j" d="M121.35,130.43c.53,6.63,1.06,13.27,1.59,19.88-.71-1.2-1.51-2.51-2.26-3.83-1.44-2.53-2.85-5.07-4.3-7.59-.12-.21-.39-.34-.59-.5l-1-1.9c.74-3.54,1.49-7.07,2.22-10.61q2.2-10.74,4.39-21.47c1.33-6.53,2.63-13.07,4-19.59a11.7,11.7,0,0,1,1.46-3.18c.51-.88,1.34-.72,1.92-.1A12.73,12.73,0,0,1,130.62,84,26.89,26.89,0,0,1,134,93.29c-.15.24-.43.46-.45.7-.11,1.83-.18,3.66-.26,5.48s-.15,3.73-.25,5.6q-.33,6.36-.68,12.72a19.58,19.58,0,0,1-4.1.18,4.83,4.83,0,0,0-4.8,2.19,10.79,10.79,0,0,0-2.22,8.61A15.42,15.42,0,0,1,121.35,130.43Z" transform="translate(-25.87 -20.16)"/><path class="k" d="M152.46,100.5c-.5-.1-1-.17-1.51-.31a3.56,3.56,0,0,0-4.13,1.35,22.92,22.92,0,0,0-3.42,8.86,4.08,4.08,0,0,0,3.36,4.54,5.78,5.78,0,0,1,3.92,3.91c1.33,3.4,2.36,6.91,3.45,10.4a23,23,0,0,1,.74,3.49c.23,1.52,1.49,2.13,2.5,2.89a33.54,33.54,0,0,0,4.16,2.58c1.68.89,2.87.67,2.68-1.52a2.13,2.13,0,0,1,1.22-2.25,23.44,23.44,0,0,1,2.5-1.37,1.76,1.76,0,0,1,2.52,1.75c.06,1,.13,2.05.2,3.07l-.2,1.68c.33,0,.6,0,.69-.07,2.55-3,4.48-6.15,3.68-10.33-.61-3.11-1-6.25-1.77-9.32a20.41,20.41,0,0,0-1.76-3.81,3.73,3.73,0,0,1-.15-.73c2.78,2.4,4,5.59,5.62,8.58a15.43,15.43,0,0,0-2.88-6.38c-1-1.28-2.22-2.39-3.31-3.61a9.76,9.76,0,0,1-.78-1.19,11.81,11.81,0,0,1,2.62.94,13,13,0,0,1,4.39,5.07c.7,1.31,1.32,2.65,2.06,4.15a21,21,0,0,0,1.79-7.22,21.69,21.69,0,0,1-3.17,16.93c-1.18,1.83-2.74,3.41-4.07,5.15a21.12,21.12,0,0,0-2.56,3.73c-1.06,2.26-3,2.7-5.1,2.85a13.67,13.67,0,0,1-10.52-4c-1.18-1.07-2.35-2.16-3.46-3.3a3.4,3.4,0,0,1-.69-1.35c-1.17-3.63-2.26-7.3-3.5-10.9a13.47,13.47,0,0,0-1.9-3.57,8,8,0,0,0-6.88-3.45H137c0-1.48,0-2.85,0-4.23-.07-4.26-.14-8.53-.24-12.79,0-1.31-.38-2.65,1.14-3.6l-.4-.25-1.09.45V92.87l4.48.95-.36.94L142,103c.74-.92,1.29-1.65,1.89-2.32,1.12-1.26,2.22-2.52,4.25-1.86a5.09,5.09,0,0,0,1.93-.21Zm22.31,21.58-.09-.32-.09.06.18.26,1,5.85.55-.12C176.57,125.74,175.62,123.92,174.77,122.08Zm-37.21-26.7.21.6,2-.73-.18-.53Z" transform="translate(-25.87 -20.16)"/><path class="k" d="M147.21,172c-.39-.46-1-.86-1.13-1.38-1.83-5.64-5.34-10.09-9.63-14a16.29,16.29,0,0,0-1.39-1c-.94,2.74-1.86,5.34-2.73,8a17.86,17.86,0,0,0-.47,8.26,9.54,9.54,0,0,1,2.24.53,1.54,1.54,0,0,1,.54,1.31,1.32,1.32,0,0,1-1.09.58c-2.29-1.11-4.6-.64-6.91-.18a13.83,13.83,0,0,0-2.87.85,4.81,4.81,0,0,1,1.34-.16,4.14,4.14,0,0,1,1.14.59c-.3.25-.56.67-.91.75a11.9,11.9,0,0,0-5.6,2.62c1.06-.07,2-.08,3-.22a33.68,33.68,0,0,1,10.07.45c.94.14,1.9.16,2.84.3a1.28,1.28,0,0,1,.8.44c.84,1.24,1.68,2.49,2.42,3.79a4.45,4.45,0,0,1,.22,1.54c-.57.05-1.32.37-1.7.12-1.51-1-2.9-2.15-4.34-3.24l.75-.11.11-.4c-1.14-.43-2.26-.92-3.43-1.28a18.66,18.66,0,0,0-10.42-.37,5.32,5.32,0,0,0-1.19.65l7.25-.38-1.66.28.94.64-2.19.17v.39c.75.11,1.5.17,2.24.32a21.84,21.84,0,0,1,9.65,5.19c.62.52.7,1.66.83,2.57-.87-1-1.67-2-2.63-2.91a17.21,17.21,0,0,0-10.15-4.29,28.92,28.92,0,0,0-6.17,0,12.79,12.79,0,0,0-3.32,1.38v0c.07-1.46.17-2.93.19-4.4,0-1.07-.09-2.15-.11-3.23a3.25,3.25,0,0,1,.09-1.29,9,9,0,0,0-.7-8.38c-.27-.47-.47-1-.72-1.52,2.84-.7,5.6-1.33,8.32-2.08,2-.55,4-1.25,5.92-1.9a4.73,4.73,0,0,0,3.34-3.31c1-3.62,1.87-7.25,2.81-10.88l.21-1c.9.66,1.71,1.2,2.47,1.79,2.19,1.72,4.07,3.61,4.91,6.45a8.1,8.1,0,0,0,2.41,3.19c1.58,1.45,2,3.34,2.48,5.25a3.17,3.17,0,0,0,.54,1.21.92.92,0,0,0,.83,0,2.61,2.61,0,0,0,.21-1.29c-.14-1.08-.36-2.15-.56-3.25h3.53a11.51,11.51,0,0,1-2.36,5.38c-.26-.15-.48-.38-.7-.38a1.46,1.46,0,0,0-.95.27c-.15.15-.1.58,0,.86C146.24,167.48,146.72,169.72,147.21,172Z" transform="translate(-25.87 -20.16)"/><path class="f" d="M142.4,120.65c2.1,1.07,2.92,3.08,3.64,5.11.83,2.32,1.55,4.68,2.3,7,.53,1.67.95,3.37,1.55,5a7.1,7.1,0,0,0,1.22,1.62,2.39,2.39,0,0,1,.43.67c.88,2.56,1.86,5.09,2.58,7.69a7.28,7.28,0,0,1-1.7,7.1,5.84,5.84,0,0,1-9.17,0,15.44,15.44,0,0,1-1.83-3.6c-2-4.72-4-9.47-6.06-14.18-.61-1.37-1.47-2.64-2.2-4-.64-1.14-1.72-1.14-2.81-1.12-.34,0-.68.07-1.09.12,0,1.42,1.54.31,1.92,1.2-2.16,0-4.2.23-6-1.44-2.48-2.25-2.44-7.57-.73-9.88a20.69,20.69,0,0,1,1.69-1.82c-.1.42-.07.95-.32,1.24a5,5,0,0,0-.9,4.71,1.33,1.33,0,0,0,1.46,1.27c3.2.2,6.38.61,9.58.85a14,14,0,0,0,4.7,0c3.19-.88,4.56-3.1,2.38-6.19A7.81,7.81,0,0,1,142.4,120.65Z" transform="translate(-25.87 -20.16)"/><path class="l" d="M108.6,177.27c-1.81-4.91-5.35-8.37-9.4-11.47-3-2.3-6.5-2.65-10-2.78-6-.23-11.31,1.55-15.48,6.09a2.39,2.39,0,0,1-.79.53c-1.51.7-3,1.37-4.56,2.06a6.77,6.77,0,0,1-.64-5.58A15.57,15.57,0,0,1,70.34,162c2.53-3,5.41-5.71,7.4-9.16.5-.87,1-1.77,2.08-2a4,4,0,0,1-.37,1c-1.66,2.32-3.34,4.63-5,6.93-.25.34-.54.66-.81,1a6.52,6.52,0,0,0,1.94-.54A27.93,27.93,0,0,1,87.4,157.6a3,3,0,0,0,2.76-1.48c1.7-2.35,2.15-5.07,2.36-7.87,4.24.43,8.33,1.31,11.79,4-.07.21-.23.45-.18.63A27.08,27.08,0,0,0,109,163.58a22.76,22.76,0,0,0,1.6,1.66l1.23,3.14-.31.17c-.25-.26-.5-.52-.74-.79-4.09-4.46-9.29-6.91-15.07-8.24a39.39,39.39,0,0,0-10.66-1c-4.56.22-9.07.84-12.93,3.54a21.62,21.62,0,0,0-3.59,3.44,5.77,5.77,0,0,0-.77,1.92l.39.17a3.76,3.76,0,0,0,.48-.59,11.4,11.4,0,0,1,6.51-5.62,30.1,30.1,0,0,1,12.13-2.1c7.11.26,13.88,1.92,19.74,6.16a32.49,32.49,0,0,1,4.22,4.31,10.1,10.1,0,0,0,.68.77c.63.48.68.85-.13,1.12C112.58,173.48,111,176.2,108.6,177.27Zm3-6.2,0-.1-.12.07Z" transform="translate(-25.87 -20.16)"/><path class="m" d="M159.22,89.88a33.5,33.5,0,0,1-2.11,3.64c-1,1.29-2.13,2.42-3.22,3.62a23.64,23.64,0,0,0-7.44-7.49c4.15-2.52,5.18-6.54,5.51-10.81.2-2.73.09-5.49,0-8.24a1.56,1.56,0,0,1,.93-1.56,24.05,24.05,0,0,0,4.33-3.14c2.13-2.1,2.6-4.89,2.42-7.76a2,2,0,0,1,1.4-2.27c.93,3,2,6.05,2.72,9.13a49.85,49.85,0,0,1,.78,6.13c-.18.61-.33,1.23-.54,1.82a36.41,36.41,0,0,1-5.56,9.87,2,2,0,0,0-.42,1.37C158.39,86.1,158.83,88,159.22,89.88Zm-1,1.15c1-2.37-.37-4.51-.82-6.81a1.93,1.93,0,0,0-.59,1.44C157.19,87.46,157.72,89.24,158.2,91Zm-1.46,1.46c.93-1,.48-4.8-1-6.94a4.94,4.94,0,0,0-.18,1.33C155.92,88.74,156.33,90.59,156.74,92.49Zm-2.16-5.32c-.25,2.24.85,4.31.83,6.53C156.19,91.41,155.34,89.29,154.58,87.17Z" transform="translate(-25.87 -20.16)"/><path class="n" d="M131.84,81.8a7.77,7.77,0,0,0,4.79-4.34,72.94,72.94,0,0,0,2.16-7.16c.29-1,.57-2,.77-3,.08-.38,0-1-.19-1.16a1.31,1.31,0,0,0-1.16.09c-1.89,1.17-3.77,2.37-5.6,3.63-1.43,1-4.32.39-5.57-1.23,3.15.23,5.82-1.07,8.41-2.62,1.91-1.14,3.81-2.3,5.75-3.39a10.86,10.86,0,0,1,6.69-1.18,2.3,2.3,0,0,1,1.36.81,18.52,18.52,0,0,1,1.53,2.28c.58,1,1.27,1.07,1.73.07a16.64,16.64,0,0,0,1.17-3.93c.12-.69.2-1.16.91-1.47,1.08-.47,2.1-1.07,3.31-1.69.09,3-.32,5.61-2.57,7.5a26.14,26.14,0,0,1-4.52,2.86c-.82.44-.77,1-.69,1.67a30.19,30.19,0,0,1-1.05,13.58,8.05,8.05,0,0,1-3.88,4.82,2.1,2.1,0,0,1-1.52.06c-1.59-.62-3.13-1.36-4.69-2.06a10,10,0,0,0,3.73-2.87c1.62-2.07,2.91-4.21,2.57-7-.28-2.2-.58-4.4-.86-6.61L144,65.71A6.56,6.56,0,0,0,140.29,71c-.27,1.68-.12,3.42-.31,5.12-.22,2.08-.27,4.27-1.71,6-.87,1-1.9,1.91-2.86,2.86C133.11,85.16,132.75,83.17,131.84,81.8Z" transform="translate(-25.87 -20.16)"/><path class="o" d="M92.29,56.11a46.19,46.19,0,0,1,2.24-4.71c6-9.79,15-15.34,26-17.5a34.88,34.88,0,0,1,21.06,2.69,76.34,76.34,0,0,1,7,4,2,2,0,0,1,.47.52c-4.79-.06-9.66.49-13.82-2.89-1.67-1.36-3.57-2.61-5.93-2.48a11.56,11.56,0,0,0-2.69.38c-5.88,1.78-11,5-16,8.42C105,48.37,99.16,52,93.39,55.66A6.67,6.67,0,0,1,92.29,56.11Z" transform="translate(-25.87 -20.16)"/><path class="p" d="M91.75,210.91a4.31,4.31,0,0,1-1.34-3.57A25.57,25.57,0,0,1,95.53,193a5.48,5.48,0,0,1,3-1.78c2.57-.55,4.81,2,4.19,4.67-.16.69-.39,1.36-.59,2l.24.31a14.35,14.35,0,0,0,2.38-1.47c2.27-2,3.18-4.83,3.84-7.69a26.19,26.19,0,0,0,.5-9.38l2.42-1.54a34,34,0,0,1-2.26,12.4C105.86,199.44,99.35,205.65,91.75,210.91Z" transform="translate(-25.87 -20.16)"/><path class="o" d="M89.72,77.57A46,46,0,0,1,89,70.5a74.82,74.82,0,0,1,1.32-9,15,15,0,0,1,1-2.59,32.24,32.24,0,0,0,11.4-.24c-1.35,2-2.62,3.73-3.74,5.55q-2.08,3.41-3.94,7a1.89,1.89,0,0,0,0,1.69c.61.66,1.17-.09,1.74-.43,2.08-1.23,4.19-2.43,6.29-3.64a.75.75,0,0,0,.16.15c-.95,2.1-1.87,4.21-2.87,6.28a1.53,1.53,0,0,1-1,.63C96.13,76.45,92.92,77,89.72,77.57Z" transform="translate(-25.87 -20.16)"/><path class="j" d="M142.4,120.65A7.81,7.81,0,0,0,143,122c2.18,3.09.81,5.31-2.38,6.19a14,14,0,0,1-4.7,0c-3.2-.24-6.38-.65-9.58-.85a1.33,1.33,0,0,1-1.46-1.27,5,5,0,0,1,.9-4.71c.25-.29.22-.82.32-1.24a3.72,3.72,0,0,1,1-.42c1.89-.08,3.78-.14,5.67-.14,2.56,0,5.13,0,7.69.12C141.16,119.77,141.77,120.33,142.4,120.65Z" transform="translate(-25.87 -20.16)"/><path class="k" d="M119.38,198.61l.72-.45c2.65.65,5.43.92,7.77,2.52l.82.6.2-.29-.84-.51c-1.36-1.6-3.26-2.08-5.18-2.52,3.06-1,6.1-.53,9.12.16a8,8,0,0,1,2.43.94c3,1.88,5.88.7,7.9-1.27,1.18-1.15,2.16-2.5,3.23-3.76a25.73,25.73,0,0,1-6,11.28c-2.13,2.34-4.61,4.37-6.93,6.54,0-2.87-1.7-5-3.13-7.31-.16-.26-.65-.3-1-.45-1.32-2-3.43-2.41-5.52-2.91l-1.14-.67-1.26-.68c1.39.27,2.78.53,4.16.82.56.11,1.11.28,1.67.42l.15-.49c-1.63-.51-3.25-1-4.88-1.5C120.93,198.86,120.15,198.76,119.38,198.61Zm9.48,2.77c2.4,2.2,4.62,4.54,5.63,7.77C135,206.85,131.66,202.67,128.86,201.38Z" transform="translate(-25.87 -20.16)"/><path class="q" d="M180.65,115.65a21,21,0,0,1-1.79,7.22c-.74-1.5-1.36-2.84-2.06-4.15a13,13,0,0,0-4.39-5.07,11.81,11.81,0,0,0-2.62-.94,12.31,12.31,0,0,0-1.81-1.27,11.08,11.08,0,0,1-5.09-4.73c.59-.54,1.13-1.09,1.74-1.56a1.33,1.33,0,0,1,.86-.22,27.12,27.12,0,0,1,12.88,4.93c1.53,1,1.57,2.84,2,4.43.07.36.15.72.22,1.08Z" transform="translate(-25.87 -20.16)"/><path class="r" d="M112.61,218.54a16.87,16.87,0,0,1-.15-9.08,1.62,1.62,0,0,1,1-1,61.8,61.8,0,0,1,6.17-1.24c1.65-.23,3.33-.17,5-.24q.36,2.83.73,5.67c-3.68.34-7.35.63-11,1.06-.73.08-1.75,0-2.23,1.24a50.57,50.57,0,0,1,13.47-1.49c-.07.83-.15,1.65-.21,2.48-.14,1.69-.25,1.64-1.9,1.48C119.82,217.11,116.12,217,112.61,218.54Z" transform="translate(-25.87 -20.16)"/><path class="j" d="M92.52,148.25c-.21,2.8-.66,5.52-2.36,7.87a3,3,0,0,1-2.76,1.48,27.93,27.93,0,0,0-11.84,1.61,6.52,6.52,0,0,1-1.94.54c.27-.32.56-.64.81-1,1.68-2.3,3.36-4.61,5-6.93a4,4,0,0,0,.37-1,14.8,14.8,0,0,1,6.78-2.34C88.55,148.24,90.54,148.32,92.52,148.25Z" transform="translate(-25.87 -20.16)"/><path class="e" d="M135.41,85c1-1,2-1.83,2.86-2.86,1.44-1.71,1.49-3.9,1.71-6,.19-1.7,0-3.44.31-5.12A6.56,6.56,0,0,1,144,65.71l.46,3.78c.28,2.21.58,4.41.86,6.61.34,2.76-.95,4.9-2.57,7A10,10,0,0,1,139,85.94Z" transform="translate(-25.87 -20.16)"/><path class="s" d="M182.66,103.1a15.72,15.72,0,0,1,2.9-1.84c.51-.19,1.4.26,2,.65s1.16,1,.67,1.81-1.11,1.84-1.73,2.7c-.94,1.3-.92,1.82.27,2.88s1.24,1.53.29,2.61a4.08,4.08,0,0,0-.47,5.28,1.43,1.43,0,0,1-.08,1.29c-.8,1-1.73,1.93-2.62,2.88l-.29-.2c-.2-1.68-.32-3.38-.63-5-.41-2.22-.77-4.49-2.21-6.36-.36-.47-.77-.91-1.16-1.35a4.81,4.81,0,0,1,.29-1.74,5.22,5.22,0,0,1,1.56-1.58,17.57,17.57,0,0,1,2.37-1.12Z" transform="translate(-25.87 -20.16)"/><path class="t" d="M125.36,204a6.09,6.09,0,0,1,1.08.86,17.58,17.58,0,0,1,3.9,9.86,43,43,0,0,1-2.13,17.58,32.34,32.34,0,0,1-3.08,6,13.41,13.41,0,0,1-2.57,2.4l-.32-.21a2.92,2.92,0,0,1,.26-.91,38.39,38.39,0,0,0,5.44-14.62,34.14,34.14,0,0,0-.21-14.58,38.29,38.29,0,0,0-2.31-5.57c-.08-.2-.19-.39-.29-.59Z" transform="translate(-25.87 -20.16)"/><path class="s" d="M127.2,222.89a33.38,33.38,0,0,1-12.91,1.27l-.38-3.44c1.9-.16,3.79-.35,5.67-.5l6.68-.49c1.14-.08,1.36.15,1.2,1.28C127.37,221.63,127.29,222.26,127.2,222.89Z" transform="translate(-25.87 -20.16)"/><path class="k" d="M120.11,183c-.06,1,.64.9,1.29.93a12.67,12.67,0,0,1,6.41,1.95,6.11,6.11,0,0,1,1,1l-.21.46a23.56,23.56,0,0,1-2.52-.56c-2.38-.79-4.8-1.15-6.92.45a31.23,31.23,0,0,0-3.65,3.71c-.32.35-.58.74-.87,1.12a5.47,5.47,0,0,0-.79-3.78.8.8,0,0,1,0-.64c.43-1.19.87-2.39,1.37-3.55a1.18,1.18,0,0,1,.75-.62C117.37,183.32,118.74,183.19,120.11,183Z" transform="translate(-25.87 -20.16)"/><path class="n" d="M109.08,51.08c.7,1.12.57,1.48-.54,2.17a2.06,2.06,0,0,0-.83,1.17,38.58,38.58,0,0,0-.83,13.38c.26,2.48.36,5,.53,7.49l-5,.29c.75-1.71,1.39-3.19,2-4.67.35-.76.73-1.51,1.1-2.26.74-1.52.45-2-1.28-2.26a44.8,44.8,0,0,1,2.58-11.6,6.81,6.81,0,0,0,.31-2.38c0-.95.42-1.3,1.92-1.32Z" transform="translate(-25.87 -20.16)"/><path class="f" d="M132.36,117.79q.34-6.36.68-12.72c.1-1.87.17-3.73.25-5.6s.15-3.65.26-5.48c0-.24.3-.46.45-.7.16,1.25.41,2.5.46,3.76q.3,7.74.48,15.5c0,1.22-.23,2.45-.18,3.68s-.35,1.72-1.56,1.54A4.72,4.72,0,0,0,132.36,117.79Z" transform="translate(-25.87 -20.16)"/><path class="u" d="M124.89,228.05a28.82,28.82,0,0,1-11.7.7l.9-3.41a38.63,38.63,0,0,0,4.31,0c2.31-.28,4.6-.74,6.91-1.12a2.44,2.44,0,0,1,.16.83C125.31,226,125.09,227,124.89,228.05Z" transform="translate(-25.87 -20.16)"/><path class="u" d="M123.46,232.61l-10.63,1.25c-1.15-3.38-.77-3.88,2.27-4.07,3.19-.21,6.37-.62,9.55-.94C124.25,230.1,123.85,231.35,123.46,232.61Z" transform="translate(-25.87 -20.16)"/><path class="v" d="M118.69,201l-4.77,1.73a8,8,0,0,0-2.35.88A4.74,4.74,0,0,0,110,207.4c-.06,1.74,0,3.49-.15,5.25-.87-2.88-1.94-5.72-1.31-8.82a4.52,4.52,0,0,1,4.37-4,16.07,16.07,0,0,1,2.2.21C116.34,200.32,117.51,200.7,118.69,201Z" transform="translate(-25.87 -20.16)"/><path class="q" d="M150.09,98.56a5.09,5.09,0,0,1-1.93.21c-2-.66-3.13.6-4.25,1.86-.6.67-1.15,1.4-1.89,2.32l-1.54-8.19C144.38,94.27,147.12,96.7,150.09,98.56Z" transform="translate(-25.87 -20.16)"/><path class="r" d="M121.54,237.17c-1.09.17-2.16.38-3.25.5-.71.07-1.43,0-2.15,0-2.58,0-2.59,0-3.2-2.55-.08-.31-.12-.62-.16-.85l10.2-.88Z" transform="translate(-25.87 -20.16)"/><path class="u" d="M125,206l-12,1.36c.68-1.22,1.12-2.52,2.6-2.85,1.86-.41,3.72-.81,5.59-1.09C123.23,203.15,124.39,204.26,125,206Z" transform="translate(-25.87 -20.16)"/><path class="f" d="M154.85,151.63c.85-4.12-1.36-7.59-2.24-11.43a16.45,16.45,0,0,0,7.24,5.5l-4.71,6Z" transform="translate(-25.87 -20.16)"/><path class="f" d="M182.93,95.47v3.7c0,1.62-.37,2.16-2,2.52a16.68,16.68,0,0,1-2.35.19l-.21-5c0-.59,0-1.16.78-1.2Z" transform="translate(-25.87 -20.16)"/><path class="s" d="M125.38,212.69q-.37-2.83-.73-5.67c.7-.17,1.08.08,1.36.76a23.89,23.89,0,0,1,1.52,9.2c0,.6-.19.92-1,.92-2.62,0-5.23.12-7.85.24-2,.1-4.05.26-6.07.4,3.51-1.56,7.21-1.43,10.89-1.08,1.65.16,1.76.21,1.9-1.48.06-.83.14-1.65.21-2.48l.76-.42-.1-.24Z" transform="translate(-25.87 -20.16)"/><path class="u" d="M182.66,103.1l1.12.87a17.57,17.57,0,0,0-2.37,1.12,5.22,5.22,0,0,0-1.56,1.58,4.81,4.81,0,0,0-.29,1.74l-6.7-3.65.77-.47c2-.23,3.94-.44,5.9-.69C180.58,103.46,181.62,103.27,182.66,103.1Z" transform="translate(-25.87 -20.16)"/><path class="j" d="M182.93,95.47l-3.78.23c-.82,0-.8.61-.78,1.2l.21,5H176.8c0-2.23.13-4.4.13-6.56,0-.73.19-1.15.94-1.18,1.25-.06,2.5-.1,3.76-.14C182.64,94,183.1,94.44,182.93,95.47Z" transform="translate(-25.87 -20.16)"/><path class="j" d="M55.35,136.23c.09-2.89,2.36-6.2,4.88-6.89-.76,2.75-1.49,5.42-2.22,8.08C56.79,137.76,56.16,136.8,55.35,136.23Z" transform="translate(-25.87 -20.16)"/><path class="t" d="M140,91.65c-1.21-.22-2.42-.42-3.62-.68a1,1,0,0,1-.68-.5,16.9,16.9,0,0,1-1-3.91l6.79,2.62Z" transform="translate(-25.87 -20.16)"/><path class="w" d="M114.77,136.49l1,1.9c1.48,3,3,5.9,4.46,8.86q2.61,5.25,5.2,10.51a3.52,3.52,0,0,1,.16.88l-.38.22a7.68,7.68,0,0,1-.84-1.15c-1.66-3.49-3.23-7-4.94-10.5-1.4-2.86-3-5.64-4.42-8.49a12.24,12.24,0,0,1-.66-2Z" transform="translate(-25.87 -20.16)"/><path class="u" d="M140,91.65l1.5-2.47L148,93.47l.19,1.56Z" transform="translate(-25.87 -20.16)"/><path class="f" d="M80.79,147.5a7.63,7.63,0,0,1,4.93-2.11,27.64,27.64,0,0,1,17.1,2.83,2.91,2.91,0,0,1,.89.7,55.2,55.2,0,0,0-6.12-2.09,29.66,29.66,0,0,0-16,.51,5.53,5.53,0,0,1-.81.16Z" transform="translate(-25.87 -20.16)"/><path class="j" d="M110.58,165.24a22.76,22.76,0,0,1-1.6-1.66,27.08,27.08,0,0,1-4.85-10.68c0-.18.11-.42.18-.63a20.58,20.58,0,0,1,2,2.9c1.43,3.14,2.73,6.34,4.08,9.52C110.44,164.87,110.5,165.06,110.58,165.24Z" transform="translate(-25.87 -20.16)"/><path class="u" d="M119.41,240.86c-2.62,1.08-4,.46-5.16-2.39l6.27-.37a8.2,8.2,0,0,1-.31,1.23C120,239.86,119.68,240.35,119.41,240.86Z" transform="translate(-25.87 -20.16)"/><path class="t" d="M173.63,104.29l-.77.47-2.66-1c.34-1.07.69-2.14,1-3.21l3.34-1.34a1.42,1.42,0,0,1-.33,2.14C173.13,102.38,173,103.19,173.63,104.29Z" transform="translate(-25.87 -20.16)"/><path class="v" d="M172,136.21a49.54,49.54,0,0,0,.68-13.6l.31,0c.23,1.32.44,2.64.69,4,.57,3,.88,6-.85,8.75-.15.23-.28.48-.43.71C172.4,136.05,172.3,136.06,172,136.21Z" transform="translate(-25.87 -20.16)"/><path class="f" d="M55.35,136.23c.81.57,1.44,1.53,2.66,1.19-.35,1.54-.7,3.08-1.08,4.77C55.62,140.33,54.71,138.5,55.35,136.23Z" transform="translate(-25.87 -20.16)"/><path class="v" d="M136.66,145.57c-1-.61-2-1.2-3-1.84a.9.9,0,0,1-.2-.72,17.44,17.44,0,0,1,.83-3.49l2.36,6.07Z" transform="translate(-25.87 -20.16)"/><path class="x" d="M128.5,204.09c.34.15.83.19,1,.45,1.43,2.27,3.11,4.44,3.13,7.31v1.83l-.46.1A23,23,0,0,0,128.5,204.09Z" transform="translate(-25.87 -20.16)"/><path class="k" d="M134.52,190.18c-1.17-.85-2.32-1.72-3.51-2.55s-2.67-1.82-4-2.76a2.14,2.14,0,0,1-.44-.64A13.65,13.65,0,0,1,134.52,190.18Z" transform="translate(-25.87 -20.16)"/><path class="u" d="M171.23,100.59c-.34,1.07-.69,2.14-1,3.21l-2.29-.52C168.32,100.94,168.71,100.62,171.23,100.59Z" transform="translate(-25.87 -20.16)"/><path class="x" d="M118.69,201c-1.18-.34-2.35-.72-3.55-1a16.07,16.07,0,0,0-2.2-.21l5.73-.25,1.46.16.45.08,1.26.68,1.14.67Z" transform="translate(-25.87 -20.16)"/><path class="s" d="M121.54,237.17,123,233.4l1.82-.48c-.59,1.5-1.11,2.84-1.6,4.1Z" transform="translate(-25.87 -20.16)"/><path class="t" d="M124.89,228.05c.2-1,.42-2,.58-3a2.44,2.44,0,0,0-.16-.83l1.82-.45a31.25,31.25,0,0,1-.85,3.74C126.17,227.79,125.37,227.87,124.89,228.05Z" transform="translate(-25.87 -20.16)"/><path class="s" d="M123.46,232.61c.39-1.26.79-2.51,1.19-3.76l1.27-.32C125.83,231.06,125.08,232.29,123.46,232.61Z" transform="translate(-25.87 -20.16)"/><path class="t" d="M117.85,219.29a34,34,0,0,1,9.63-.75v.38Z" transform="translate(-25.87 -20.16)"/><path class="s" d="M119.41,240.86c.27-.51.58-1,.8-1.53a8.2,8.2,0,0,0,.31-1.23l2.18-.44C122.17,239.41,121.25,240.63,119.41,240.86Z" transform="translate(-25.87 -20.16)"/><path class="t" d="M148.14,95,148,93.47l2.52,2.41-.34.42Z" transform="translate(-25.87 -20.16)"/><path class="v" d="M95.15,213l-1.4-.4,2.18-1.54.19.13Z" transform="translate(-25.87 -20.16)"/><path class="k" d="M120.13,199.75l-1.46-.16Z" transform="translate(-25.87 -20.16)"/><path class="k" d="M180.56,115.37c-.07-.36-.15-.72-.22-1.08C180.41,114.65,180.49,115,180.56,115.37Z" transform="translate(-25.87 -20.16)"/><path class="f" d="M104.45,149.44l-.15.12-.15-.23c.06,0,.14-.07.19-.06S104.41,149.38,104.45,149.44Z" transform="translate(-25.87 -20.16)"/><path class="k" d="M126.41,184.17l-.55-.19Z" transform="translate(-25.87 -20.16)"/><path class="l" d="M111.8,169s.07,0,.08,0,0,.05,0,.08h-.13Z" transform="translate(-25.87 -20.16)"/><path class="f" d="M105.25,150.14l-.32-.09.31.09Z" transform="translate(-25.87 -20.16)"/><path class="o" d="M103.05,68.79l.16-.11v.26A.75.75,0,0,1,103.05,68.79Z" transform="translate(-25.87 -20.16)"/><path class="k" d="M145.59,193.92l.13-.37Z" transform="translate(-25.87 -20.16)"/><path class="k" d="M113.64,183.71l-.06.08s0,0-.06,0l.13-.06Z" transform="translate(-25.87 -20.16)"/><path class="v" d="M136.64,145.59a.25.25,0,0,1,.09,0s0,.05,0,.07l-.08-.13Z" transform="translate(-25.87 -20.16)"/><path class="f" d="M80.79,147.5l-.05.1.05-.1Z" transform="translate(-25.87 -20.16)"/><path class="f" d="M105.24,150.14l.1.06-.09-.06Z" transform="translate(-25.87 -20.16)"/><path class="y" d="M72.91,220.42a58.74,58.74,0,0,0-24.47,23.23A49.49,49.49,0,0,0,42,263.78,70.15,70.15,0,0,0,44,288.68a7.68,7.68,0,0,1,.11.82,3.86,3.86,0,0,1-.65-.76c-.65-1.37-1.19-2.79-1.89-4.13-2.87-5.4-3.73-11.31-4.07-17.27a64.06,64.06,0,0,1,.45-11.07,46,46,0,0,1,4.69-16.4,84.87,84.87,0,0,1,12.48-17.12c5.16-5.7,11.71-9.8,17.28-15-.57,1.51-1.05,3.06-1.74,4.52a2.47,2.47,0,0,0-.17,2.24C71.3,216.44,72.1,218.43,72.91,220.42Z" transform="translate(-25.87 -20.16)"/><path class="e" d="M72.37,207.72c-5.57,5.23-12.12,9.33-17.28,15a84.87,84.87,0,0,0-12.48,17.12,46,46,0,0,0-4.69,16.4,64.06,64.06,0,0,0-.45,11.07c.34,6,1.2,11.87,4.07,17.27.7,1.34,1.24,2.76,1.89,4.13a3.86,3.86,0,0,0,.65.76c1.54,4.45,3.08,8.9,4.7,13.56-.27-.35-.45-.56-.6-.78a78,78,0,0,1-11.32-25.53,11.37,11.37,0,0,1-.17-1.17l.2-.86c-.42,0-1-.27-1.23-.07a19.7,19.7,0,0,0-1.84,2.12,28.24,28.24,0,0,1,.87-4.54,13.86,13.86,0,0,0,.68-6.06c-.2-2.13-.09-4.28-.11-6.43.14-.87-.22-1.22-1.07-.86s-1.65,1-2.49,1.41a7.6,7.6,0,0,1-1.07.4c1.58-2.3,3.19-4.57,4.72-6.89a8.22,8.22,0,0,0,1-2.3c1-3.68,2-7.39,3-11.08.18-.69.46-1.35.69-2,.11-1.17-.78-.71-1.21-.64-1.5.26-3,.65-4.48,1a2.71,2.71,0,0,1-.83-.11,37.72,37.72,0,0,1,9.34-7.43l.27-.23h0c.63-.36,1.45-.59,1.83-1.12a27.84,27.84,0,0,0,1.93-3.52c.93-1.79,1.84-3.59,2.76-5.38l.91-2c0-.42.16-1-.05-1.24a6.87,6.87,0,0,0-1.95-1.43,21.23,21.23,0,0,0-2.76-.91c3.32-.89,6.65-1.76,10-2.67a13.14,13.14,0,0,0,1.61-.68c2.3-1.27,5.11-1.81,6.23-4.74.59-1.57,1.91-2.85,1.8-4.69l0-.91c0-.4.16-.91,0-1.16-.66-.87-1.44-1.64-2.17-2.45l1.66-2.2,4-.24a4,4,0,0,1,2.47,2.72A16.31,16.31,0,0,1,72.37,207.72Z" transform="translate(-25.87 -20.16)"/><path class="z" d="M82.44,200.22c.19-4.84,1.1-9.8-1.69-14.28,2.56-1.48,3.49-2.94,3.07-4.76a3.77,3.77,0,0,0-3.3-3.18c-3-.15-4.28,1.71-4.45,4.6l-.43-.1a9,9,0,0,1-.27-3c1-4,2.49-8,5.75-10.83s9.45-3.66,12.51.49a11.82,11.82,0,0,1,2.24,8.25,15.9,15.9,0,0,1-2.47,7.77,7.55,7.55,0,0,1-3.19,2.77c-2.44,1.1-3.93,3.24-5,5.57C84.12,195.68,83.34,198,82.44,200.22Z" transform="translate(-25.87 -20.16)"/><path class="s" d="M76.2,228.34c-1.35.38-2.69.8-4.06,1.11a1.08,1.08,0,0,1-.92-.53c-.42-1.4-.73-2.82-1.12-4.39l4.46-1.07c.31.33.78.61.88,1C75.77,225.73,76,227,76.2,228.34Z" transform="translate(-25.87 -20.16)"/><path class="s" d="M76.45,233.12a7,7,0,0,0-1.74.29c-1,.43-1.47,0-1.86-.82s-.74-1.41-1.21-2.29l4.59-1.5C76.3,230.24,76.38,231.68,76.45,233.12Z" transform="translate(-25.87 -20.16)"/><path class="y" d="M63.26,198.1c.73.81,1.51,1.58,2.17,2.45.18.25,0,.76,0,1.16l-2.63-2.45C63,198.88,63.11,198.49,63.26,198.1Z" transform="translate(-25.87 -20.16)"/><path class="t" d="M76.27,236,74,234.4l2.45-.81C76.38,234.39,76.33,235.19,76.27,236Z" transform="translate(-25.87 -20.16)"/><path class="p" d="M61.86,198.38l-2.59-1.62,2.42-.47C61.74,197,61.8,197.68,61.86,198.38Z" transform="translate(-25.87 -20.16)"/><path class="c" d="M68.93,195.66l-4,.24C66.2,194.85,67.55,195.09,68.93,195.66Z" transform="translate(-25.87 -20.16)"/><path class="y" d="M65.41,202.62c.11,1.84-1.21,3.12-1.8,4.69-1.12,2.93-3.93,3.47-6.23,4.74,1.52-1.83,3-3.67,4.57-5.48C63.09,205.23,64.26,203.93,65.41,202.62Z" transform="translate(-25.87 -20.16)"/><path class="n" d="M49.65,220.93c-.92,1.79-1.83,3.59-2.76,5.38A27.84,27.84,0,0,1,45,229.83c-.38.53-1.2.76-1.83,1.12A28.61,28.61,0,0,1,49.65,220.93Z" transform="translate(-25.87 -20.16)"/><path class="n" d="M45.8,215.4a21.23,21.23,0,0,1,2.76.91,6.87,6.87,0,0,1,1.95,1.43c.21.22,0,.82.05,1.24a5.91,5.91,0,0,0-1.51-1c-1.9-.52-3.83-.92-6.11-1.45Z" transform="translate(-25.87 -20.16)"/><path class="n" d="M33.53,238.61a2.71,2.71,0,0,0,.83.11c1.5-.31,3-.7,4.48-1,.43-.07,1.32-.53,1.21.64a21.12,21.12,0,0,0-7.23,2.48,16.34,16.34,0,0,1-1.63.66l-.06,0Z" transform="translate(-25.87 -20.16)"/><path class="n" d="M33.82,276.77a19.7,19.7,0,0,1,1.84-2.12c.22-.2.81,0,1.23.07l-.2.86A25.73,25.73,0,0,0,34.88,278a29.58,29.58,0,0,1-1.57,2.82Z" transform="translate(-25.87 -20.16)"/><path class="n" d="M30.63,260.69a7.6,7.6,0,0,0,1.07-.4c.84-.45,1.62-1,2.49-1.41s1.21,0,1.07.86l-5.52,2.9-.09-.09.8-1.6.22-.26Z" transform="translate(-25.87 -20.16)"/><path class="e" d="M30.67,260.69l-.22.26Z" transform="translate(-25.87 -20.16)"/><path class="n" d="M43.14,231l-.27.23Z" transform="translate(-25.87 -20.16)"/><path class="aa" d="M36.37,241.45l.25-.11v.29Z" transform="translate(-25.87 -20.16)"/><path class="n" d="M31.19,241.54l-.13.14c0-.07.05-.13.07-.19Z" transform="translate(-25.87 -20.16)"/><path class="n" d="M29.74,262.64l-.14.14a1.89,1.89,0,0,0,0-.23Z" transform="translate(-25.87 -20.16)"/><path class="w" d="M112.67,135.51a82.76,82.76,0,0,0-17-.66,135.22,135.22,0,0,0-14.74,1.59A76.89,76.89,0,0,0,62,142a12.72,12.72,0,0,0-1.58.95c-.22-.82.18-1.23.91-1.53a82.28,82.28,0,0,1,20.42-5.87c5-.71,10-1.13,15-1.44,3.52-.22,7.06-.08,10.59,0a31,31,0,0,1,4.49.52C112.17,134.66,112.4,135.2,112.67,135.51Z" transform="translate(-25.87 -20.16)"/><path class="a" d="M119.4,43.42c2.1.27,4.21.45,6.29.83,2.32.42,4.6,1,6.9,1.55l.06.13s0,0,0-.06l-.09-.06a4.9,4.9,0,0,0-3.45-2.89,5.52,5.52,0,0,1-1.05-.65c2.1-.5,4.48,1.42,5.24,2.93.66,1.31.31,2-1,2.07-4.11-.89-8.08-2.5-12.38-2.66-.41,3.26-.86,6.35,1.47,9.13.34-1.81.61-3.41,1-5a4.63,4.63,0,0,1,.79-1.24l1,.74.25.43,3,4.85a16.12,16.12,0,0,0,4.68-4.84l1.15.28c-2.14,2.76-4.24,5.56-7.62,7-.39.07-.77.12-1.16.21-3,.69-5.11-.59-5.53-3.7a39.66,39.66,0,0,1-.24-6.17A13.44,13.44,0,0,1,119.4,43.42Z" transform="translate(-25.87 -20.16)"/><path class="n" d="M119.4,43.42a13.44,13.44,0,0,0-.69,2.85,39.66,39.66,0,0,0,.24,6.17c.42,3.11,2.48,4.39,5.53,3.7.39-.09.77-.14,1.16-.21-.79,1.33-2.17,1.52-3.49,1.61-4.43.3-6.66-2.37-6.75-6.34a19.94,19.94,0,0,1,1.17-5.89A2.48,2.48,0,0,1,119.4,43.42Z" transform="translate(-25.87 -20.16)"/><path class="y" d="M133.26,49l-1.15-.28.21-1.42c1.3-.06,1.65-.76,1-2.07-.76-1.51-3.14-3.43-5.24-2.93a2.64,2.64,0,0,1-.36-.28c-.21-.24-.4-.49-.6-.73.32-.16.66-.49,1-.45,1,.12,1.91.38,2.87.57.3.06.62.08.93.11a.32.32,0,0,0,0,.09l.06,0-.1-.11-1.28-1a7.87,7.87,0,0,1,4.85,2.33c.79.91.59,2-.25,3.16C134.46,46.93,133.89,48,133.26,49Z" transform="translate(-25.87 -20.16)"/><path class="y" d="M120.35,67.16a22.57,22.57,0,0,1,.74-2.15c.13-.3.6-.67.87-.63s.61.48.71.82c.38,1.27.71,2.57,1,3.88.06.33-.06.92-.29,1a1.87,1.87,0,0,1-1.41.19C120.8,69.84,120.33,68.85,120.35,67.16Z" transform="translate(-25.87 -20.16)"/><path class="c" d="M148.13,45.23c1,.47,1.85.86,2.68,1.3a.91.91,0,0,1-.08.61,8.66,8.66,0,0,1-2.56.27c-.38,0-.78-.78-.94-1.27C147.18,46,147.79,45.56,148.13,45.23Z" transform="translate(-25.87 -20.16)"/><path class="y" d="M109.08,51.09c-.71-1.27.44-1.8,1.07-2.49.13-.14.73,0,1,.2s.25.71.14.79c-.71.55-1,1.68-2.23,1.49Z" transform="translate(-25.87 -20.16)"/><path class="ab" d="M94.44,47a9.17,9.17,0,0,1-2.19-1.78c-.25-.36.1-1.34.43-1.89a41.87,41.87,0,0,1,27-18.9c1-.19,1.77.44,2.17,1.95.25.93-.34,1.24-1.09,1.51a49.09,49.09,0,0,0-19,12.25c-1.54,1.61-2.85,3.43-4.24,5.18A5.06,5.06,0,0,1,94.44,47Z" transform="translate(-25.87 -20.16)"/><path class="ab" d="M159.22,89.88c-.39-1.89-.83-3.78-1.15-5.69a2,2,0,0,1,.42-1.37A36.41,36.41,0,0,0,164.05,73c.21-.59.36-1.21.54-1.82.6-2.18,1.28-4.33,1.75-6.53s.7-4.28,1.07-6.65a5.44,5.44,0,0,1,1.33,3.93,39.72,39.72,0,0,1-9.32,27.87A.69.69,0,0,1,159.22,89.88Z" transform="translate(-25.87 -20.16)"/><path class="ab" d="M123.45,23.78c1.62,0,2.38.83,2.3,2.1a1.19,1.19,0,0,1-1.32,1.23,2.25,2.25,0,0,1-1.89-2.34C122.61,24.32,123.27,24,123.45,23.78Z" transform="translate(-25.87 -20.16)"/><path class="a" d="M126.11,179.93l-7.25.38a5.32,5.32,0,0,1,1.19-.65,18.66,18.66,0,0,1,10.42.37c1.17.36,2.29.85,3.43,1.28l-.11.4-.75.11h0l-.46-.21Z" transform="translate(-25.87 -20.16)"/><path class="c" d="M127.87,200.69c-2.34-1.61-5.12-1.88-7.77-2.53l-1.42-.15,0-.46,4.15.41c1.92.44,3.82.92,5.18,2.52Z" transform="translate(-25.87 -20.16)"/><path class="k" d="M132.57,181.6l.46.21Z" transform="translate(-25.87 -20.16)"/><path class="q" d="M174.77,122.08c.85,1.84,1.8,3.66,1.51,5.73l-.55.12-1-5.85Z" transform="translate(-25.87 -20.16)"/><path class="c" d="M137.56,95.38l2-.66.18.53-2,.73Z" transform="translate(-25.87 -20.16)"/><path class="q" d="M174.77,122.08l-.18-.26.09-.06.09.32Z" transform="translate(-25.87 -20.16)"/><path class="a" d="M111.63,171.07l-.09,0,.12-.07Z" transform="translate(-25.87 -20.16)"/><path class="ab" d="M158.2,91c-.48-1.79-1-3.57-1.41-5.37a1.93,1.93,0,0,1,.59-1.44C157.83,86.52,159.19,88.66,158.2,91Z" transform="translate(-25.87 -20.16)"/><path class="ab" d="M156.74,92.49c-.41-1.9-.82-3.75-1.18-5.61a4.94,4.94,0,0,1,.18-1.33C157.22,87.69,157.67,91.52,156.74,92.49Z" transform="translate(-25.87 -20.16)"/><path class="ab" d="M154.58,87.17c.76,2.12,1.61,4.24.83,6.53C155.43,91.48,154.33,89.41,154.58,87.17Z" transform="translate(-25.87 -20.16)"/><path class="c" d="M128.86,201.38c2.8,1.29,6.18,5.47,5.63,7.77C133.48,205.92,131.26,203.58,128.86,201.38Z" transform="translate(-25.87 -20.16)"/><path class="c" d="M128.05,200.48l.84.51-.2.29-.82-.6Z" transform="translate(-25.87 -20.16)"/><path class="c" d="M125.38,212.69l.89.15.1.24-.76.42A50.57,50.57,0,0,0,112.14,215c.48-1.22,1.5-1.16,2.23-1.24C118,213.32,121.7,213,125.38,212.69Z" transform="translate(-25.87 -20.16)"/><path class="ac" d="M132.32,47.27l-.21,1.42a16.12,16.12,0,0,1-4.68,4.84l-3-4.85,2.88.61c1,.23,1.81-.18,1.86-1.06s-.56-1.33-1.4-1.46c-.42-.06-.85-.13-1.27-.23-1.74-.41-2.17-.1-2.32,1.71l-1-.74a4.63,4.63,0,0,0-.79,1.24c-.36,1.58-.63,3.18-1,5-2.33-2.78-1.88-5.87-1.47-9.13C124.24,44.77,128.21,46.38,132.32,47.27Z" transform="translate(-25.87 -20.16)"/><path class="aa" d="M124.17,48.25c.15-1.81.58-2.12,2.32-1.71.42.1.85.17,1.27.23.84.13,1.45.54,1.4,1.46s-.86,1.29-1.86,1.06l-2.88-.61Z" transform="translate(-25.87 -20.16)"/><path class="e" d="M132.57,45.81l.09.06s0,0,0,.06l-.06-.13Z" transform="translate(-25.87 -20.16)"/><path class="e" d="M131.85,41.49l.1.11-.06,0a.32.32,0,0,1,0-.09Z" transform="translate(-25.87 -20.16)"/></svg>